<?xml version="1.0" encoding="UTF-8" standalone="no"?><!DOCTYPE svg PUBLIC "-//W3C//DTD SVG 1.1//EN" "http://www.w3.org/Graphics/SVG/1.1/DTD/svg11.dtd"><!-- Generated by graphviz version 2.40.1 (20161225.0304)
 --><!-- Title: G Pages: 1 --><svg xmlns="http://www.w3.org/2000/svg" xmlns:xlink="http://www.w3.org/1999/xlink" width="320pt" height="1192pt" viewBox="0.00 0.00 319.79 1191.96">
<g id="graph0" class="graph" transform="scale(1 1) rotate(0) translate(4 1187.9557)">
<title>G</title>
<polygon fill="#ffffff" stroke="transparent" points="-4,4 -4,-1187.9557 315.7893,-1187.9557 315.7893,4 -4,4"/>
<!-- read_bill_item -->
<g id="node1" class="node">
<title>read_bill_item</title>
<ellipse fill="none" stroke="#000000" cx="47.0776" cy="-1146.1516" rx="36" ry="36"/>
<text text-anchor="middle" x="47.0776" y="-1149.7516" font-family="Times,serif" font-size="12.00" fill="#000000">load</text>
<text text-anchor="middle" x="47.0776" y="-1135.3516" font-family="Times,serif" font-size="12.00" fill="#000000">Bill Item</text>
</g>
<!-- union_bill_item -->
<g id="node4" class="node">
<title>union_bill_item</title>
<ellipse fill="none" stroke="#000000" cx="93.0776" cy="-1036.3475" rx="36" ry="36"/>
<text text-anchor="middle" x="93.0776" y="-1032.7475" font-family="Times,serif" font-size="12.00" fill="#000000">union all</text>
</g>
<!-- read_bill_item&#45;&gt;union_bill_item -->
<g id="edge1" class="edge">
<title>read_bill_item-&gt;union_bill_item</title>
<path fill="none" stroke="#000000" d="M61.0039,-1112.9087C65.4216,-1102.3635 70.3712,-1090.5487 75.0352,-1079.4155"/>
<polygon fill="#000000" stroke="#000000" points="78.404,-1080.432 79.0398,-1069.8563 71.9477,-1077.7272 78.404,-1080.432"/>
</g>
<!-- read_misc_bill_item -->
<g id="node2" class="node">
<title>read_misc_bill_item</title>
<ellipse fill="none" stroke="#000000" cx="139.0776" cy="-1146.1516" rx="37.6093" ry="37.6093"/>
<text text-anchor="middle" x="139.0776" y="-1149.7516" font-family="Times,serif" font-size="12.00" fill="#000000">load</text>
<text text-anchor="middle" x="139.0776" y="-1135.3516" font-family="Times,serif" font-size="12.00" fill="#000000">Misc Item</text>
</g>
<!-- read_misc_bill_item&#45;&gt;union_bill_item -->
<g id="edge2" class="edge">
<title>read_misc_bill_item-&gt;union_bill_item</title>
<path fill="none" stroke="#000000" d="M124.3964,-1111.107C120.1287,-1100.9197 115.4193,-1089.6782 110.9772,-1079.0747"/>
<polygon fill="#000000" stroke="#000000" points="114.0854,-1077.4356 106.9932,-1069.5647 107.629,-1080.1404 114.0854,-1077.4356"/>
</g>
<!-- read_pending_bill -->
<g id="node3" class="node">
<title>read_pending_bill</title>
<ellipse fill="none" stroke="#000000" cx="236.0776" cy="-687.1218" rx="44.3173" ry="44.3173"/>
<text text-anchor="middle" x="236.0776" y="-690.7218" font-family="Times,serif" font-size="12.00" fill="#000000">load</text>
<text text-anchor="middle" x="236.0776" y="-676.3218" font-family="Times,serif" font-size="12.00" fill="#000000">Pending Bill</text>
</g>
<!-- union_pending_bill -->
<g id="node9" class="node">
<title>union_pending_bill</title>
<ellipse fill="none" stroke="#000000" cx="193.0776" cy="-558.6357" rx="36" ry="36"/>
<text text-anchor="middle" x="193.0776" y="-555.0357" font-family="Times,serif" font-size="12.00" fill="#000000">union all</text>
</g>
<!-- read_pending_bill&#45;&gt;union_pending_bill -->
<g id="edge8" class="edge">
<title>read_pending_bill-&gt;union_pending_bill</title>
<path fill="none" stroke="#000000" d="M221.8786,-644.6945C217.3511,-631.1661 212.3334,-616.173 207.7715,-602.5419"/>
<polygon fill="#000000" stroke="#000000" points="211.0367,-601.2697 204.5439,-592.8975 204.3985,-603.4913 211.0367,-601.2697"/>
</g>
<!-- map_to_pending_bill -->
<g id="node5" class="node">
<title>map_to_pending_bill</title>
<ellipse fill="none" stroke="#000000" cx="93.0776" cy="-919.9389" rx="44.3173" ry="44.3173"/>
<text text-anchor="middle" x="93.0776" y="-923.5389" font-family="Times,serif" font-size="12.00" fill="#000000">to</text>
<text text-anchor="middle" x="93.0776" y="-909.1389" font-family="Times,serif" font-size="12.00" fill="#000000">Pending Bill</text>
</g>
<!-- union_bill_item&#45;&gt;map_to_pending_bill -->
<g id="edge3" class="edge">
<title>union_bill_item-&gt;map_to_pending_bill</title>
<path fill="none" stroke="#000000" d="M93.0776,-1000.1532C93.0776,-992.0941 93.0776,-983.3747 93.0776,-974.7548"/>
<polygon fill="#000000" stroke="#000000" points="96.5777,-974.7269 93.0776,-964.727 89.5777,-974.727 96.5777,-974.7269"/>
</g>
<!-- cache_pending_bill -->
<g id="node6" class="node">
<title>cache_pending_bill</title>
<ellipse fill="none" stroke="#000000" cx="93.0776" cy="-803.5304" rx="36" ry="36"/>
<text text-anchor="middle" x="93.0776" y="-799.9304" font-family="Times,serif" font-size="12.00" fill="#000000">cache</text>
</g>
<!-- map_to_pending_bill&#45;&gt;cache_pending_bill -->
<g id="edge4" class="edge">
<title>map_to_pending_bill-&gt;cache_pending_bill</title>
<path fill="none" stroke="#000000" d="M93.0776,-875.2652C93.0776,-866.878 93.0776,-858.0938 93.0776,-849.6632"/>
<polygon fill="#000000" stroke="#000000" points="96.5777,-849.6053 93.0776,-839.6053 89.5777,-849.6053 96.5777,-849.6053"/>
</g>
<!-- filter_error_bill_item -->
<g id="node7" class="node">
<title>filter_error_bill_item</title>
<ellipse fill="none" stroke="#000000" cx="48.0776" cy="-687.1218" rx="36" ry="36"/>
<text text-anchor="middle" x="48.0776" y="-690.7218" font-family="Times,serif" font-size="12.00" fill="#000000">is</text>
<text text-anchor="middle" x="48.0776" y="-676.3218" font-family="Times,serif" font-size="12.00" fill="#000000">error</text>
</g>
<!-- cache_pending_bill&#45;&gt;filter_error_bill_item -->
<g id="edge5" class="edge">
<title>cache_pending_bill-&gt;filter_error_bill_item</title>
<path fill="none" stroke="#000000" d="M80.0617,-769.8602C75.3042,-757.5532 69.8543,-743.4549 64.8172,-730.4249"/>
<polygon fill="#000000" stroke="#000000" points="67.9345,-728.7816 61.0642,-720.7163 61.4054,-731.3057 67.9345,-728.7816"/>
</g>
<!-- filter_success_pending_bill -->
<g id="node8" class="node">
<title>filter_success_pending_bill</title>
<ellipse fill="none" stroke="#000000" cx="138.0776" cy="-687.1218" rx="36" ry="36"/>
<text text-anchor="middle" x="138.0776" y="-690.7218" font-family="Times,serif" font-size="12.00" fill="#000000">is</text>
<text text-anchor="middle" x="138.0776" y="-676.3218" font-family="Times,serif" font-size="12.00" fill="#000000">success</text>
</g>
<!-- cache_pending_bill&#45;&gt;filter_success_pending_bill -->
<g id="edge7" class="edge">
<title>cache_pending_bill-&gt;filter_success_pending_bill</title>
<path fill="none" stroke="#000000" d="M106.0935,-769.8602C110.851,-757.5532 116.3009,-743.4549 121.338,-730.4249"/>
<polygon fill="#000000" stroke="#000000" points="124.7498,-731.3057 125.091,-720.7163 118.2207,-728.7816 124.7498,-731.3057"/>
</g>
<!-- write_error_bill_item -->
<g id="node10" class="node">
<title>write_error_bill_item</title>
<ellipse fill="none" stroke="#000000" cx="48.0776" cy="-558.6357" rx="48.1553" ry="48.1553"/>
<text text-anchor="middle" x="48.0776" y="-562.2357" font-family="Times,serif" font-size="12.00" fill="#000000">write</text>
<text text-anchor="middle" x="48.0776" y="-547.8357" font-family="Times,serif" font-size="12.00" fill="#000000">error bill item</text>
</g>
<!-- filter_error_bill_item&#45;&gt;write_error_bill_item -->
<g id="edge6" class="edge">
<title>filter_error_bill_item-&gt;write_error_bill_item</title>
<path fill="none" stroke="#000000" d="M48.0776,-650.9893C48.0776,-640.4262 48.0776,-628.6001 48.0776,-617.0293"/>
<polygon fill="#000000" stroke="#000000" points="51.5777,-616.9647 48.0776,-606.9648 44.5777,-616.9648 51.5777,-616.9647"/>
</g>
<!-- filter_success_pending_bill&#45;&gt;union_pending_bill -->
<g id="edge9" class="edge">
<title>filter_success_pending_bill-&gt;union_pending_bill</title>
<path fill="none" stroke="#000000" d="M152.3846,-653.699C159.2596,-637.6383 167.5763,-618.2096 174.8947,-601.113"/>
<polygon fill="#000000" stroke="#000000" points="178.1245,-602.4616 178.8422,-591.8911 171.6893,-599.7069 178.1245,-602.4616"/>
</g>
<!-- group_by_pending_bill -->
<g id="node11" class="node">
<title>group_by_pending_bill</title>
<ellipse fill="none" stroke="#000000" cx="193.0776" cy="-430.2672" rx="44.0828" ry="44.0828"/>
<text text-anchor="middle" x="193.0776" y="-441.0672" font-family="Times,serif" font-size="12.00" fill="#000000">group by</text>
<text text-anchor="middle" x="193.0776" y="-426.6672" font-family="Times,serif" font-size="12.00" fill="#000000">&amp;</text>
<text text-anchor="middle" x="193.0776" y="-412.2672" font-family="Times,serif" font-size="12.00" fill="#000000">aggregate</text>
</g>
<!-- union_pending_bill&#45;&gt;group_by_pending_bill -->
<g id="edge10" class="edge">
<title>union_pending_bill-&gt;group_by_pending_bill</title>
<path fill="none" stroke="#000000" d="M193.0776,-522.5363C193.0776,-510.8334 193.0776,-497.5789 193.0776,-484.8411"/>
<polygon fill="#000000" stroke="#000000" points="196.5777,-484.7758 193.0776,-474.7758 189.5777,-484.7759 196.5777,-484.7758"/>
</g>
<!-- maybe_complete -->
<g id="node12" class="node">
<title>maybe_complete</title>
<ellipse fill="none" stroke="#000000" cx="193.0776" cy="-305.6684" rx="44.1166" ry="44.1166"/>
<text text-anchor="middle" x="193.0776" y="-316.4684" font-family="Times,serif" font-size="12.00" fill="#000000">Complete</text>
<text text-anchor="middle" x="193.0776" y="-302.0684" font-family="Times,serif" font-size="12.00" fill="#000000">or</text>
<text text-anchor="middle" x="193.0776" y="-287.6684" font-family="Times,serif" font-size="12.00" fill="#000000">Pending</text>
</g>
<!-- group_by_pending_bill&#45;&gt;maybe_complete -->
<g id="edge11" class="edge">
<title>group_by_pending_bill-&gt;maybe_complete</title>
<path fill="none" stroke="#000000" d="M193.0776,-385.6361C193.0776,-377.3952 193.0776,-368.7047 193.0776,-360.2096"/>
<polygon fill="#000000" stroke="#000000" points="196.5777,-359.9878 193.0776,-349.9878 189.5777,-359.9879 196.5777,-359.9878"/>
</g>
<!-- filter_error_or_pending -->
<g id="node13" class="node">
<title>filter_error_or_pending</title>
<ellipse fill="none" stroke="#000000" cx="148.0776" cy="-189.3605" rx="36" ry="36"/>
<text text-anchor="middle" x="148.0776" y="-192.9605" font-family="Times,serif" font-size="12.00" fill="#000000">is</text>
<text text-anchor="middle" x="148.0776" y="-178.5605" font-family="Times,serif" font-size="12.00" fill="#000000">error</text>
</g>
<!-- maybe_complete&#45;&gt;filter_error_or_pending -->
<g id="edge12" class="edge">
<title>maybe_complete-&gt;filter_error_or_pending</title>
<path fill="none" stroke="#000000" d="M177.0856,-264.3351C173.1419,-254.1422 168.9064,-243.1949 164.9236,-232.9009"/>
<polygon fill="#000000" stroke="#000000" points="168.0729,-231.3409 161.2002,-223.2775 161.5445,-233.8668 168.0729,-231.3409"/>
</g>
<!-- filter_complete -->
<g id="node14" class="node">
<title>filter_complete</title>
<ellipse fill="none" stroke="#000000" cx="248.0776" cy="-189.3605" rx="36" ry="36"/>
<text text-anchor="middle" x="248.0776" y="-192.9605" font-family="Times,serif" font-size="12.00" fill="#000000">is</text>
<text text-anchor="middle" x="248.0776" y="-178.5605" font-family="Times,serif" font-size="12.00" fill="#000000">success</text>
</g>
<!-- maybe_complete&#45;&gt;filter_complete -->
<g id="edge14" class="edge">
<title>maybe_complete-&gt;filter_complete</title>
<path fill="none" stroke="#000000" d="M212.1596,-265.3159C217.3952,-254.2442 223.0814,-242.2197 228.3524,-231.0732"/>
<polygon fill="#000000" stroke="#000000" points="231.5524,-232.4934 232.6633,-221.9569 225.2242,-229.5008 231.5524,-232.4934"/>
</g>
<!-- write_pending_and_failed_bill -->
<g id="node15" class="node">
<title>write_pending_and_failed_bill</title>
<ellipse fill="none" stroke="#000000" cx="128.0776" cy="-58.6802" rx="58.861" ry="58.861"/>
<text text-anchor="middle" x="128.0776" y="-76.6802" font-family="Times,serif" font-size="12.00" fill="#000000">write Pending</text>
<text text-anchor="middle" x="128.0776" y="-62.2802" font-family="Times,serif" font-size="12.00" fill="#000000">&amp;</text>
<text text-anchor="middle" x="128.0776" y="-47.8802" font-family="Times,serif" font-size="12.00" fill="#000000">Failed</text>
<text text-anchor="middle" x="128.0776" y="-33.4802" font-family="Times,serif" font-size="12.00" fill="#000000">bills</text>
</g>
<!-- filter_error_or_pending&#45;&gt;write_pending_and_failed_bill -->
<g id="edge13" class="edge">
<title>filter_error_or_pending-&gt;write_pending_and_failed_bill</title>
<path fill="none" stroke="#000000" d="M142.6125,-153.6515C141.33,-145.2715 139.9212,-136.0665 138.501,-126.7869"/>
<polygon fill="#000000" stroke="#000000" points="141.9335,-126.0792 136.9609,-116.7238 135.0141,-127.1383 141.9335,-126.0792"/>
</g>
<!-- write_bill -->
<g id="node16" class="node">
<title>write_bill</title>
<ellipse fill="none" stroke="#000000" cx="258.0776" cy="-58.6802" rx="53.9243" ry="53.9243"/>
<text text-anchor="middle" x="258.0776" y="-62.2802" font-family="Times,serif" font-size="12.00" fill="#000000">write</text>
<text text-anchor="middle" x="258.0776" y="-47.8802" font-family="Times,serif" font-size="12.00" fill="#000000">Completed bills</text>
</g>
<!-- filter_complete&#45;&gt;write_bill -->
<g id="edge15" class="edge">
<title>filter_complete-&gt;write_bill</title>
<path fill="none" stroke="#000000" d="M250.8366,-153.3056C251.5726,-143.6874 252.3903,-133.0017 253.2036,-122.3742"/>
<polygon fill="#000000" stroke="#000000" points="256.7058,-122.4774 253.9791,-112.2394 249.7262,-121.9432 256.7058,-122.4774"/>
</g>
</g>
</svg>